<?xml version="1.0" ?>
<!-- Uploaded to: SVG Repo, www.svgrepo.com, Generator: SVG Repo Mixer Tools -->
<svg width="800px" height="800px" viewBox="0 0 64 64" xmlns="http://www.w3.org/2000/svg">
<g id="a"/>
<g id="b"/>
<g id="c"/>
<g id="d"/>
<g id="e"/>
<g id="f"/>
<g id="g"/>
<g id="h"/>
<g id="i"/>
<g id="j"/>
<g id="k"/>
<g id="l"/>
<g id="m"/>
<g id="n"/>
<g id="o"/>
<g id="p"/>
<g id="q"/>
<g id="r"/>
<g id="s"/>
<g id="t"/>
<g id="u"/>
<g id="v"/>
<g id="w"/>
<g id="x"/>
<g id="y"/>
<g id="a`"/>
<g id="aa"/>
<g id="ab"/>
<g id="ac"/>
<g id="ad"/>
<g id="ae"/>
<g id="af"/>
<g id="ag"/>
<g id="ah"/>
<g id="ai"/>
<g id="aj"/>
<g id="ak"/>
<g id="al"/>
<g id="am"/>
<g id="an"/>
<g id="ao">
<path d="M18.75,58.8c.34,.12,.7,.2,1.06,.2h25.74c.96,0,1.83-.53,2.28-1.38l6.56-12.45c.25-.47,.36-.98,.38-1.49l-7.14-5.18-28.88,20.29Z" fill="#f8c228" id="ap"/>
<path d="M47.63,38.51l-7.09,4.98,11.54,6.08,2.32-4.4c.25-.47,.36-.98,.38-1.49l-7.14-5.18Z" fill="#e7a21c" id="aq"/>
<path d="M29.8,5c-1.15,0-2.2,.66-2.7,1.7l-2.08,4.28,9.44,1.84,6.49-3.74-10.06-3.87c-.35-.13-.72-.2-1.1-.2h0Z" fill="#f8c228" id="ar"/>
<path d="M41.04,9.08l3.05,13.08,11.03-6.08,2.53-1.22c.49-.24,.43-.96-.09-1.11l-15.09-4.39c-.47-.14-.94-.22-1.42-.27h0Z" fill="#fdda5c" id="as"/>
<path d="M55.11,16.07l-11.32,4.82,5.02,7.35,6.3-12.16Z" fill="#f8c228" id="at"/>
<path d="M6.07,43.39l8.51-4.91,3.69-6.73-7.16-3.94c-.69-.38-1.54,0-1.73,.76l-3.28,13.63c-.1,.4-.09,.8-.03,1.2Z" fill="#f8c228" id="au"/>
<path d="M18.26,58.59c.16,.09,.32,.15,.49,.21h0l23.12-5.41c.71-.17,1.3-.65,1.61-1.31l4.89-10.49-9.62-8.06-20.48-1.78-3.97,12.88,3.97,13.97Z" fill="#fce87b" id="av"/>
<path d="M18.27,31.75l27.84,14.68,2.25-4.84-7.94-6.65-22.12-3.19h-.03Z" fill="#f8c228" id="aw"/>
<path d="M48.81,28.24l-3.28-8.09-10.15-.5-17.1,12.1h0l30.1,9.85,6.41,2.1c0-.45-.06-.9-.24-1.32l-5.73-14.13Z" fill="#fdda5c" id="ax"/>
<path d="M40.96,9.07l-15.94,1.9h-.06l-1.14,.16c-.92,.12-1.66,.81-1.84,1.72l-3.71,18.89,27.26-11.6-4.49-11.07s-.05,0-.08,0h0Z" fill="#fce87b" id="ay"/>
<path d="M18.26,58.59V31.75l-12.2,11.64c.08,.55,.29,1.08,.65,1.52l10.56,12.89c.27,.33,.61,.59,.98,.79Z" fill="#fdda5c" id="b`"/>
<path d="M55.11,16.07l-8.45,6.87-1.13-2.79,9.58-4.08Z" fill="#e7a21c" id="ba"/>
<path d="M35.93,7.14l-10.91,3.84,16.02-1.89-5.11-1.95Z" fill="#e7a21c" id="bb"/>
<path d="M6.08,43.38l8.61-13.6,3.58,1.97-12.19,11.63Z" fill="#e7a21c" id="bc"/>
<path d="M58.08,15.75c.6-.29,.95-.9,.9-1.57-.05-.66-.5-1.21-1.14-1.4l-15.09-4.39c-.51-.15-1.03-.25-1.55-.3l-9.93-3.82c-1.96-.75-4.13,.1-5.06,1.99l-1.84,3.79-.67,.09c-1.35,.17-2.43,1.19-2.7,2.52l-3.44,17.55-5.96-3.28c-.6-.33-1.31-.36-1.94-.09-.63,.28-1.08,.82-1.24,1.49l-3.28,13.63c-.3,1.25,0,2.59,.82,3.58l10.56,12.89c.82,1,2.03,1.57,3.31,1.57h25.74c1.33,0,2.54-.73,3.16-1.91l6.56-12.44c.6-1.14,.66-2.47,.18-3.66l-5.56-13.7,5.94-11.46,2.23-1.08Zm-1.81-1.34c-2.08,1-.17,.16-10.2,4.43l-3.4-8.38,13.6,3.96ZM28,7.14c.46-.95,1.55-1.38,2.54-1l6.29,2.42-10.11,1.21,1.28-2.63Zm-5.05,5.91c.1-.49,.49-.86,.99-.93l1.2-.15h0l15.25-1.82,3.84,9.47-24.62,10.47,3.34-17.04Zm-3.69,44.61v-24.53l27.72,9.07-4.43,9.46c-.18,.38-.44,.66-.67,.71l-22.62,5.29ZM10.35,28.8c.02-.07,.07-.11,.11-.13,.02,0,.05-.02,.08-.02,.03,0,.06,0,.09,.02l5.96,3.29-9.08,8.67,2.85-11.83Zm-2.86,15.48c-.14-.17-.21-.39-.29-.59l10.06-9.6v22.12l-9.77-11.93Zm39.45,12.88c-.27,.52-.81,.84-1.39,.84H26.57l15.77-3.69c.84-.2,1.58-.86,2.03-1.81l4.53-9.68,4.71,1.54c-.04,.12-.04,.24-.1,.35l-6.56,12.44Zm6.43-14.97L21.11,31.63l23.88-10.16,2.9,7.14h0l5.5,13.57Zm-4.47-16.33l-2.1-5.17,6.12-2.6-4.02,7.77Z"/>
</g>
<g id="bd"/>
<g id="be"/>
<g id="bf"/>
<g id="bg"/>
<g id="bh"/>
<g id="bi"/>
<g id="bj"/>
<g id="bk"/>
<g id="bl"/>
</svg>